<svg width="12" height="12" xmlns="http://www.w3.org/2000/svg">
 <g>
  <title>background</title>
 </g>

 <g>
  <title>Layer 1</title>
  <path d="m80.518,57.29l-1.286,1.325c-0.23,0.236 -0.9,0.384 -0.92,0.384c-4.07,0.03 -7.99,-1.62 -10.868,-4.59c-2.887,-2.98 -4.487,-7.03 -4.444,-11.24c0,0 0.15,-0.68 0.38,-0.91l1.286,-1.33c0.47,-0.49 1.374,-0.71 2.007,-0.49l0.27,0.09c0.635,0.21 1.296,0.93 1.47,1.6l0.648,2.45c0.18,0.66 -0.06,1.61 -0.53,2.09l-0.86,0.88c0.85,3.22 3.29,5.75 6.42,6.62l0.86,-0.89c0.47,-0.48 1.39,-0.728 2.04,-0.548l2.38,0.67c0.64,0.18 1.34,0.86 1.55,1.512l0.09,0.274c0.22,0.65 0,1.58 -0.47,2.07l-0.023,0.033zm-6.61,-8.29l1.212,0c0,-1.38 -1.085,-2.5 -2.424,-2.5l0,1.25c0.668,0 1.212,0.56 1.212,1.25zm4.848,0c0,-3.452 -2.713,-6.25 -6.06,-6.25l0,1.25c2.673,0 4.848,2.244 4.848,5l1.212,0zm-6.06,-10l0,1.25c4.678,0 8.485,3.926 8.485,8.75l1.22,0c0,-5.523 -4.34,-10 -9.69,-10l-0.015,0z" id="svg_1"/>
  <path fill="#c82a87" d="m10.46109,10.73065l-0.73382,0.75607c-0.13124,0.13467 -0.51356,0.21912 -0.52497,0.21912c-2.32244,0.01712 -4.55929,-0.92441 -6.20155,-2.61916c-1.64739,-1.70046 -2.56039,-4.01149 -2.53585,-6.41382c0,0 0.08559,-0.38802 0.21684,-0.51927l0.73382,-0.75893c0.26819,-0.2796 0.78404,-0.40514 1.14524,-0.2796l0.15407,0.05135c0.36235,0.11984 0.73953,0.53068 0.83882,0.913l0.36976,1.39803c0.10272,0.37661 -0.03423,0.91871 -0.30243,1.19261l-0.49073,0.50215c0.48503,1.83741 1.87735,3.28109 3.6634,3.77753l0.49074,-0.50786c0.26819,-0.2739 0.79317,-0.41541 1.16407,-0.3127l1.35809,0.38232c0.3652,0.10271 0.76464,0.49074 0.88447,0.86278l0.05135,0.15635c0.12554,0.37091 0,0.90159 -0.26819,1.1812l-0.01313,0.01883zm-3.77182,-4.73048l0.6916,0c0,-0.78746 -0.61913,-1.42656 -1.3832,-1.42656l0,0.71328c0.38118,0 0.6916,0.31955 0.6916,0.71328zm2.76638,0c0,-1.96979 -1.5481,-3.5664 -3.45798,-3.5664l0,0.71328c1.52528,0 2.76639,1.28048 2.76639,2.85312l0.69159,0zm-3.45798,-5.70624l0,0.71328c2.66938,0 4.84175,2.24027 4.84175,4.99296l0.69616,0c0,-3.15156 -2.47651,-5.70624 -5.52935,-5.70624l-0.00856,0z" id="svg_5"/>
 </g>
 <g>
  <title>background</title>
  <rect fill="none" id="canvas_background" height="14" width="14" y="-1" x="-1"/>
 </g>
</svg>