<svg width="600" height="600" xmlns="http://www.w3.org/2000/svg">
 <!-- Created with Method Draw - http://github.com/duopixel/Method-Draw/ -->

 <g>
  <title>background</title>
  <rect fill="none" id="canvas_background" height="602" width="602" y="-1" x="-1"/>
  <g display="none" overflow="visible" y="0" x="0" height="100%" width="100%" id="canvasGrid">
   <rect fill="url(#gridpattern)" stroke-width="0" y="0" x="0" height="100%" width="100%"/>
  </g>
 </g>
 <g>
  <title>Layer 1</title>

  <path fill="#c82a87" id="svg_4" d="m502.2006,503.24589l-404.40121,0l0,-406.49174l202.20061,0l0,-58.07025l-202.20061,0c-32.08381,0 -57.77989,26.13162 -57.77989,58.07025l0,406.49174c0,31.93864 25.69608,58.07025 57.77989,58.07025l404.40121,0c31.79346,0 57.7799,-26.13161 57.7799,-58.07025l0,-203.24587l-57.7799,0l0,203.24587zm-144.42071,-464.56199l0,58.07025l103.71347,0l-283.96352,285.41527l40.73628,40.93953l283.67317,-285.41527l0,104.23609l57.77989,0l0,-203.24587l-202.08446,0l0.14517,0z"/>
 </g>
</svg>